<svg fill="#228BE6" xmlns="http://www.w3.org/2000/svg"  viewBox="0 0 64 64" width="64px" height="64px"><path d="M48,8H16c-4.418,0-8,3.582-8,8v32c0,4.418,3.582,8,8,8h32c4.418,0,8-3.582,8-8V16C56,11.582,52.418,8,48,8z M22.406,39 h-4.722c-0.759,0-1.241-0.813-0.878-1.479L22,28l-2.403-5.606C19.315,21.734,19.799,21,20.517,21h4.824 c0.4,0,0.762,0.238,0.919,0.606L29,28l-5.716,10.479C23.109,38.8,22.772,39,22.406,39z M46.233,16.464L36,36l6.206,11.526 C42.565,48.192,42.082,49,41.326,49h-5.729c-0.368,0-0.706-0.202-0.88-0.526L28,36l10.719-20.464 C38.892,15.206,39.233,15,39.605,15h5.742C46.099,15,46.582,15.798,46.233,16.464z"/></svg>